<svg width="256" height="256" viewBox="0 0 256 256" xmlns="http://www.w3.org/2000/svg">
  <defs>
    <radialGradient id="app-bg" cx="50%" cy="50%" r="70%">
      <stop offset="0%" style="stop-color:#ffffff;stop-opacity:1" />
      <stop offset="100%" style="stop-color:#f8fafc;stop-opacity:1" />
    </radialGradient>
    <linearGradient id="app-shield" x1="0%" y1="0%" x2="0%" y2="100%">
      <stop offset="0%" style="stop-color:#22c55e;stop-opacity:1" />
      <stop offset="100%" style="stop-color:#16a34a;stop-opacity:1" />
    </linearGradient>
  </defs>
  
  <circle cx="128" cy="128" r="120" fill="url(#app-bg)" stroke="#e5e7eb" stroke-width="1"/>
  
  <!-- Circuit pattern -->
  <g stroke="#e5e7eb" stroke-width="1" fill="none" opacity="0.4">
    <line x1="40" y1="75" x2="100" y2="75"/>
    <line x1="156" y1="75" x2="216" y2="75"/>
    <line x1="40" y1="125" x2="90" y2="125"/>
    <line x1="166" y1="125" x2="216" y2="125"/>
    <line x1="40" y1="175" x2="100" y2="175"/>
    <line x1="156" y1="175" x2="216" y2="175"/>
    
    <line x1="75" y1="40" x2="75" y2="60"/>
    <line x1="75" y1="90" x2="75" y2="110"/>
    <line x1="75" y1="140" x2="75" y2="160"/>
    <line x1="75" y1="190" x2="75" y2="216"/>
    
    <line x1="175" y1="40" x2="175" y2="60"/>
    <line x1="175" y1="90" x2="175" y2="110"/>
    <line x1="175" y1="140" x2="175" y2="160"/>
    <line x1="175" y1="190" x2="175" y2="216"/>
    
    <circle cx="75" cy="75" r="2" fill="#e5e7eb"/>
    <circle cx="175" cy="75" r="2" fill="#e5e7eb"/>
    <circle cx="75" cy="125" r="2" fill="#e5e7eb"/>
    <circle cx="175" cy="125" r="2" fill="#e5e7eb"/>
    <circle cx="75" cy="175" r="2" fill="#e5e7eb"/>
    <circle cx="175" cy="175" r="2" fill="#e5e7eb"/>
  </g>
  
  <!-- Shield -->
  <g transform="translate(128, 128)">
    <path d="M0 -30 L-25 -12 L-25 30 Q-25 50 0 70 Q25 50 25 30 L25 -12 Z" 
          fill="url(#app-shield)" stroke="#15803d" stroke-width="2"/>
    <path d="M-10 10 L-2 18 L12 4" 
          fill="none" stroke="white" stroke-width="4" stroke-linecap="round"/>
  </g>
</svg>