<svg width="512" height="512" viewBox="0 0 512 512" xmlns="http://www.w3.org/2000/svg">
  <defs>
    <radialGradient id="bg" cx="50%" cy="50%" r="70%">
      <stop offset="0%" style="stop-color:#ffffff;stop-opacity:1" />
      <stop offset="100%" style="stop-color:#f8fafc;stop-opacity:1" />
    </radialGradient>
    <linearGradient id="shield" x1="0%" y1="0%" x2="0%" y2="100%">
      <stop offset="0%" style="stop-color:#22c55e;stop-opacity:1" />
      <stop offset="100%" style="stop-color:#16a34a;stop-opacity:1" />
    </linearGradient>
  </defs>
  
  <!-- Background -->
  <circle cx="256" cy="256" r="240" fill="url(#bg)" stroke="#e5e7eb" stroke-width="2"/>
  
  <!-- Circuit pattern -->
  <g stroke="#e5e7eb" stroke-width="1.5" fill="none" opacity="0.4">
    <!-- Horizontal lines -->
    <line x1="80" y1="150" x2="200" y2="150"/>
    <line x1="312" y1="150" x2="432" y2="150"/>
    <line x1="80" y1="250" x2="180" y2="250"/>
    <line x1="332" y1="250" x2="432" y2="250"/>
    <line x1="80" y1="350" x2="200" y2="350"/>
    <line x1="312" y1="350" x2="432" y2="350"/>
    
    <!-- Vertical lines -->
    <line x1="150" y1="80" x2="150" y2="120"/>
    <line x1="150" y1="180" x2="150" y2="220"/>
    <line x1="150" y1="280" x2="150" y2="320"/>
    <line x1="150" y1="380" x2="150" y2="432"/>
    
    <line x1="350" y1="80" x2="350" y2="120"/>
    <line x1="350" y1="180" x2="350" y2="220"/>
    <line x1="350" y1="280" x2="350" y2="320"/>
    <line x1="350" y1="380" x2="350" y2="432"/>
    
    <!-- Circuit nodes -->
    <circle cx="150" cy="150" r="3" fill="#e5e7eb"/>
    <circle cx="350" cy="150" r="3" fill="#e5e7eb"/>
    <circle cx="150" cy="250" r="3" fill="#e5e7eb"/>
    <circle cx="350" cy="250" r="3" fill="#e5e7eb"/>
    <circle cx="150" cy="350" r="3" fill="#e5e7eb"/>
    <circle cx="350" cy="350" r="3" fill="#e5e7eb"/>
  </g>
  
  <!-- Security shield -->
  <g transform="translate(256, 256)">
    <path d="M0 -60 L-50 -25 L-50 60 Q-50 100 0 140 Q50 100 50 60 L50 -25 Z" 
          fill="url(#shield)" stroke="#15803d" stroke-width="3"/>
    
    <!-- Checkmark -->
    <path d="M-20 20 L-5 35 L25 5" 
          fill="none" stroke="white" stroke-width="8" stroke-linecap="round" stroke-linejoin="round"/>
  </g>
</svg>